<mxfile host="app.diagrams.net" modified="2020-07-10T15:59:13.307Z" agent="5.0 (Windows NT 10.0; Win64; x64) AppleWebKit/537.36 (KHTML, like Gecko) Chrome/81.0.4044.138 Safari/537.36 OPR/68.0.3618.173" etag="1oFio0wgnXDEE0YMFY2c" version="13.3.7" type="github">
  <diagram id="EWO0N7kChD3yhIQkibt1" name="Page-1">
    <mxGraphModel dx="3223" dy="2010" grid="1" gridSize="10" guides="1" tooltips="1" connect="1" arrows="1" fold="1" page="1" pageScale="1" pageWidth="1169" pageHeight="827" math="0" shadow="0">
      <root>
        <mxCell id="0" />
        <mxCell id="1" parent="0" />
        <mxCell id="-iUiOwt4sMBN9Z4fG8X7-7" style="edgeStyle=orthogonalEdgeStyle;rounded=0;orthogonalLoop=1;jettySize=auto;html=1;exitX=0.5;exitY=1;exitDx=0;exitDy=0;entryX=0.5;entryY=0;entryDx=0;entryDy=0;" parent="1" source="-iUiOwt4sMBN9Z4fG8X7-1" target="-iUiOwt4sMBN9Z4fG8X7-2" edge="1">
          <mxGeometry relative="1" as="geometry" />
        </mxCell>
        <mxCell id="-iUiOwt4sMBN9Z4fG8X7-1" value="INICIO" style="ellipse;whiteSpace=wrap;html=1;aspect=fixed;" parent="1" vertex="1">
          <mxGeometry x="545" y="44" width="60" height="60" as="geometry" />
        </mxCell>
        <mxCell id="-iUiOwt4sMBN9Z4fG8X7-10" style="edgeStyle=orthogonalEdgeStyle;rounded=0;orthogonalLoop=1;jettySize=auto;html=1;exitX=0.5;exitY=1;exitDx=0;exitDy=0;entryX=0.5;entryY=0;entryDx=0;entryDy=0;" parent="1" source="-iUiOwt4sMBN9Z4fG8X7-2" target="-iUiOwt4sMBN9Z4fG8X7-3" edge="1">
          <mxGeometry relative="1" as="geometry" />
        </mxCell>
        <mxCell id="-iUiOwt4sMBN9Z4fG8X7-2" value="El contratista\funcionario inicia el proceso de generación del PAZ y SALVO" style="rounded=0;whiteSpace=wrap;html=1;" parent="1" vertex="1">
          <mxGeometry x="505" y="154" width="140" height="70" as="geometry" />
        </mxCell>
        <mxCell id="-iUiOwt4sMBN9Z4fG8X7-12" style="edgeStyle=orthogonalEdgeStyle;rounded=0;orthogonalLoop=1;jettySize=auto;html=1;" parent="1" source="-iUiOwt4sMBN9Z4fG8X7-3" target="-iUiOwt4sMBN9Z4fG8X7-11" edge="1">
          <mxGeometry relative="1" as="geometry" />
        </mxCell>
        <mxCell id="-iUiOwt4sMBN9Z4fG8X7-3" value="El contratista\funcionario solicita, mediante correo electrónico, dirigido a: &lt;b&gt;&lt;i&gt;(soporte.aplicaciones@agenciadetierras.gov.co), &lt;/i&gt;&lt;/b&gt;&lt;br&gt;el VoBo que corresponde a la Subdirección de Sistemas de Información de Tierras (SSIT)" style="rounded=0;whiteSpace=wrap;html=1;" parent="1" vertex="1">
          <mxGeometry x="422.5" y="284" width="305" height="90" as="geometry" />
        </mxCell>
        <mxCell id="-iUiOwt4sMBN9Z4fG8X7-4" value="&lt;h1&gt;VoBo SSIT&lt;/h1&gt;&lt;p&gt;El Visto Bueno de la SSIT se genera una vez:&lt;/p&gt;&lt;p&gt;a. Se corrobora que el contratista\funcionario no cuente con un usuario activo dentro del Sistema Integrado de Tierras y/o dentro de alguna aplicación misional operada por la SSIT.&lt;/p&gt;&lt;p&gt;b. Se corrobora que el contratista\funcionario no tenga licenciamiento ARCGIS activo&lt;/p&gt;" style="text;html=1;strokeColor=none;fillColor=none;spacing=5;spacingTop=-20;whiteSpace=wrap;overflow=hidden;rounded=0;" parent="1" vertex="1">
          <mxGeometry x="180" y="209" width="190" height="240" as="geometry" />
        </mxCell>
        <mxCell id="-iUiOwt4sMBN9Z4fG8X7-18" style="edgeStyle=orthogonalEdgeStyle;rounded=0;orthogonalLoop=1;jettySize=auto;html=1;entryX=0.5;entryY=0;entryDx=0;entryDy=0;" parent="1" source="-iUiOwt4sMBN9Z4fG8X7-11" target="-iUiOwt4sMBN9Z4fG8X7-16" edge="1">
          <mxGeometry relative="1" as="geometry" />
        </mxCell>
        <mxCell id="-iUiOwt4sMBN9Z4fG8X7-19" style="edgeStyle=orthogonalEdgeStyle;rounded=0;orthogonalLoop=1;jettySize=auto;html=1;exitX=0.5;exitY=1;exitDx=0;exitDy=0;" parent="1" source="-iUiOwt4sMBN9Z4fG8X7-11" target="-iUiOwt4sMBN9Z4fG8X7-17" edge="1">
          <mxGeometry relative="1" as="geometry" />
        </mxCell>
        <mxCell id="-iUiOwt4sMBN9Z4fG8X7-11" value="La solicitud es recibida por el profesional encargado de gestionar los Paz y Salvos dentro de la SSIT, quien:" style="rounded=0;whiteSpace=wrap;html=1;" parent="1" vertex="1">
          <mxGeometry x="420" y="444" width="310" height="60" as="geometry" />
        </mxCell>
        <mxCell id="-iUiOwt4sMBN9Z4fG8X7-13" value="" style="endArrow=none;dashed=1;html=1;entryX=0;entryY=0.5;entryDx=0;entryDy=0;exitX=1;exitY=0.5;exitDx=0;exitDy=0;" parent="1" source="-iUiOwt4sMBN9Z4fG8X7-4" target="-iUiOwt4sMBN9Z4fG8X7-3" edge="1">
          <mxGeometry width="50" height="50" relative="1" as="geometry">
            <mxPoint x="290" y="544" as="sourcePoint" />
            <mxPoint x="340" y="494" as="targetPoint" />
          </mxGeometry>
        </mxCell>
        <mxCell id="-iUiOwt4sMBN9Z4fG8X7-29" style="edgeStyle=orthogonalEdgeStyle;rounded=0;orthogonalLoop=1;jettySize=auto;html=1;entryX=0.5;entryY=0;entryDx=0;entryDy=0;" parent="1" source="-iUiOwt4sMBN9Z4fG8X7-16" target="-iUiOwt4sMBN9Z4fG8X7-28" edge="1">
          <mxGeometry relative="1" as="geometry" />
        </mxCell>
        <mxCell id="-iUiOwt4sMBN9Z4fG8X7-16" value="Verifica la existencia de usuarios creados dentro de las aplicaciones gestionadas por parte de la SSIT" style="rounded=0;whiteSpace=wrap;html=1;" parent="1" vertex="1">
          <mxGeometry x="240" y="554" width="220" height="60" as="geometry" />
        </mxCell>
        <mxCell id="-iUiOwt4sMBN9Z4fG8X7-27" style="edgeStyle=orthogonalEdgeStyle;rounded=0;orthogonalLoop=1;jettySize=auto;html=1;" parent="1" source="-iUiOwt4sMBN9Z4fG8X7-17" target="-iUiOwt4sMBN9Z4fG8X7-20" edge="1">
          <mxGeometry relative="1" as="geometry" />
        </mxCell>
        <mxCell id="-iUiOwt4sMBN9Z4fG8X7-17" value="Verifica que el contratista\funcionario tenga una licencia activa de ARCGIS" style="rounded=0;whiteSpace=wrap;html=1;" parent="1" vertex="1">
          <mxGeometry x="670" y="554" width="245" height="60" as="geometry" />
        </mxCell>
        <mxCell id="xSABTvXdTQhV1PIQ-neN-5" style="edgeStyle=orthogonalEdgeStyle;rounded=0;orthogonalLoop=1;jettySize=auto;html=1;entryX=0.5;entryY=0;entryDx=0;entryDy=0;" edge="1" parent="1" source="-iUiOwt4sMBN9Z4fG8X7-20" target="xSABTvXdTQhV1PIQ-neN-1">
          <mxGeometry relative="1" as="geometry" />
        </mxCell>
        <mxCell id="xSABTvXdTQhV1PIQ-neN-12" style="edgeStyle=orthogonalEdgeStyle;rounded=0;orthogonalLoop=1;jettySize=auto;html=1;entryX=0.5;entryY=0;entryDx=0;entryDy=0;" edge="1" parent="1" source="-iUiOwt4sMBN9Z4fG8X7-20" target="xSABTvXdTQhV1PIQ-neN-9">
          <mxGeometry relative="1" as="geometry" />
        </mxCell>
        <mxCell id="-iUiOwt4sMBN9Z4fG8X7-20" value="¿Tiene&lt;br&gt;licenciamiento &lt;br&gt;ARCGIS Activo?" style="rhombus;whiteSpace=wrap;html=1;" parent="1" vertex="1">
          <mxGeometry x="731.25" y="654" width="122.5" height="130" as="geometry" />
        </mxCell>
        <mxCell id="-iUiOwt4sMBN9Z4fG8X7-21" value="&lt;h1&gt;Inventario Licencias&lt;/h1&gt;&lt;p&gt;La verificación inicial la puede realizar de dos formas:&amp;nbsp;&lt;/p&gt;&lt;p&gt;a. Si cuenta con el acceso a la página web que administra las licencias (&lt;b&gt;myesri.com&lt;/b&gt;), revisa directamente desde el entorno de licenciamiento.&lt;/p&gt;&lt;p&gt;b. Si no cuenta con el acceso a la plataforma web de administración, revisando el inventario de licencias (archivo MS EXCEL) que es descargado directamente de la página de ESRI de adminsitración (&lt;b&gt;myesri.com&lt;/b&gt;)&lt;/p&gt;&lt;p&gt;Coteja teniendo en cuenta los siguientes datos:&lt;/p&gt;&lt;p&gt;a. Nombre del Profesional&lt;/p&gt;&lt;p&gt;b. Apellido del Profesional&lt;/p&gt;&lt;p&gt;c. Correo Electrónico&lt;/p&gt;" style="text;html=1;strokeColor=none;fillColor=none;spacing=5;spacingTop=-20;whiteSpace=wrap;overflow=hidden;rounded=0;" parent="1" vertex="1">
          <mxGeometry x="780" y="134" width="290" height="320" as="geometry" />
        </mxCell>
        <mxCell id="-iUiOwt4sMBN9Z4fG8X7-25" value="" style="endArrow=none;dashed=1;html=1;exitX=0.75;exitY=0;exitDx=0;exitDy=0;entryX=0.25;entryY=1;entryDx=0;entryDy=0;" parent="1" source="-iUiOwt4sMBN9Z4fG8X7-17" target="-iUiOwt4sMBN9Z4fG8X7-21" edge="1">
          <mxGeometry width="50" height="50" relative="1" as="geometry">
            <mxPoint x="1000" y="594" as="sourcePoint" />
            <mxPoint x="1050" y="544" as="targetPoint" />
          </mxGeometry>
        </mxCell>
        <mxCell id="xSABTvXdTQhV1PIQ-neN-4" style="edgeStyle=orthogonalEdgeStyle;rounded=0;orthogonalLoop=1;jettySize=auto;html=1;entryX=0.5;entryY=0;entryDx=0;entryDy=0;" edge="1" parent="1" source="-iUiOwt4sMBN9Z4fG8X7-28" target="xSABTvXdTQhV1PIQ-neN-1">
          <mxGeometry relative="1" as="geometry" />
        </mxCell>
        <mxCell id="-iUiOwt4sMBN9Z4fG8X7-28" value="¿Tiene usuario creado dentro de alguna aplicación SSIT?" style="rhombus;whiteSpace=wrap;html=1;" parent="1" vertex="1">
          <mxGeometry x="290" y="659" width="120" height="120" as="geometry" />
        </mxCell>
        <mxCell id="xSABTvXdTQhV1PIQ-neN-1" value="Por medio del correo electrónico&lt;br&gt;&lt;b&gt;soporte.aplicaciones@agenciadetierras.gov.co&lt;/b&gt;&lt;br&gt;se le responde al funcionario\contratista con el VoBo de la SSIT en un formato (versión 2019) previamente establecido.&amp;nbsp;" style="rounded=0;whiteSpace=wrap;html=1;" vertex="1" parent="1">
          <mxGeometry x="432.5" y="770" width="285" height="83" as="geometry" />
        </mxCell>
        <mxCell id="xSABTvXdTQhV1PIQ-neN-6" value="NO" style="text;html=1;strokeColor=none;fillColor=none;align=center;verticalAlign=middle;whiteSpace=wrap;rounded=0;" vertex="1" parent="1">
          <mxGeometry x="401" y="700" width="40" height="20" as="geometry" />
        </mxCell>
        <mxCell id="xSABTvXdTQhV1PIQ-neN-7" value="NO" style="text;html=1;strokeColor=none;fillColor=none;align=center;verticalAlign=middle;whiteSpace=wrap;rounded=0;" vertex="1" parent="1">
          <mxGeometry x="703.25" y="698" width="40" height="20" as="geometry" />
        </mxCell>
        <mxCell id="xSABTvXdTQhV1PIQ-neN-16" style="edgeStyle=orthogonalEdgeStyle;rounded=0;orthogonalLoop=1;jettySize=auto;html=1;entryX=0.5;entryY=0;entryDx=0;entryDy=0;" edge="1" parent="1" source="xSABTvXdTQhV1PIQ-neN-9" target="xSABTvXdTQhV1PIQ-neN-15">
          <mxGeometry relative="1" as="geometry" />
        </mxCell>
        <mxCell id="xSABTvXdTQhV1PIQ-neN-9" value="Se le envía un correo electrónico al funcionario solicitando desautorizar la licencia según el instructivo definido por la SSIT" style="rounded=0;whiteSpace=wrap;html=1;" vertex="1" parent="1">
          <mxGeometry x="674.13" y="920" width="236.75" height="60" as="geometry" />
        </mxCell>
        <mxCell id="xSABTvXdTQhV1PIQ-neN-10" value="&lt;h1&gt;Instructivo&lt;/h1&gt;&lt;p&gt;El instructivo de desautorización puede ser descargado desde la siguiente ruta:&lt;/p&gt;&lt;p&gt;https://agenciadetierras-my.sharepoint.com/:b:/g/personal/rodian_saby_agenciadetierras_gov_co/EYOD3K1VeFVIveEd3BY53Z0BNcfJSrrt1jomi3D_YTFUsA?e=Fh3XjN&lt;br&gt;&lt;/p&gt;&lt;p&gt;&lt;br&gt;&lt;/p&gt;" style="text;html=1;strokeColor=none;fillColor=none;spacing=5;spacingTop=-20;whiteSpace=wrap;overflow=hidden;rounded=0;" vertex="1" parent="1">
          <mxGeometry x="979" y="890" width="781" height="120" as="geometry" />
        </mxCell>
        <mxCell id="xSABTvXdTQhV1PIQ-neN-11" value="" style="endArrow=none;dashed=1;html=1;exitX=1;exitY=0.5;exitDx=0;exitDy=0;" edge="1" parent="1" source="xSABTvXdTQhV1PIQ-neN-9" target="xSABTvXdTQhV1PIQ-neN-10">
          <mxGeometry width="50" height="50" relative="1" as="geometry">
            <mxPoint x="1170" y="740" as="sourcePoint" />
            <mxPoint x="1220" y="690" as="targetPoint" />
          </mxGeometry>
        </mxCell>
        <mxCell id="xSABTvXdTQhV1PIQ-neN-13" value="SI" style="text;html=1;strokeColor=none;fillColor=none;align=center;verticalAlign=middle;whiteSpace=wrap;rounded=0;" vertex="1" parent="1">
          <mxGeometry x="784" y="784" width="40" height="20" as="geometry" />
        </mxCell>
        <mxCell id="xSABTvXdTQhV1PIQ-neN-18" style="edgeStyle=orthogonalEdgeStyle;rounded=0;orthogonalLoop=1;jettySize=auto;html=1;entryX=0.5;entryY=1;entryDx=0;entryDy=0;" edge="1" parent="1" source="xSABTvXdTQhV1PIQ-neN-15" target="xSABTvXdTQhV1PIQ-neN-1">
          <mxGeometry relative="1" as="geometry">
            <Array as="points">
              <mxPoint x="575" y="1150" />
            </Array>
          </mxGeometry>
        </mxCell>
        <mxCell id="xSABTvXdTQhV1PIQ-neN-46" style="edgeStyle=orthogonalEdgeStyle;rounded=0;orthogonalLoop=1;jettySize=auto;html=1;" edge="1" parent="1" source="xSABTvXdTQhV1PIQ-neN-15" target="xSABTvXdTQhV1PIQ-neN-34">
          <mxGeometry relative="1" as="geometry" />
        </mxCell>
        <mxCell id="xSABTvXdTQhV1PIQ-neN-15" value="&lt;span&gt;¿Se obtiene la &lt;br&gt;respuesta en la cual&lt;br&gt;el contratista\funcionario &lt;br&gt;envía los soportes de desautorización &lt;br&gt;realizada?&lt;/span&gt;" style="rhombus;whiteSpace=wrap;html=1;" vertex="1" parent="1">
          <mxGeometry x="717.5" y="1080" width="150" height="140" as="geometry" />
        </mxCell>
        <mxCell id="xSABTvXdTQhV1PIQ-neN-21" value="&lt;h1&gt;Proceso de mejora&lt;/h1&gt;&lt;p&gt;Por la gestión pasada en la administración del licenciamiento esta parte del proceso está bajo a análisis.&amp;nbsp;&lt;/p&gt;&lt;p&gt;Inicialmente la idea registrar los datos de la licencia (código de la licencia, tipo de licenciamiento), dentro de un documento sobre el cual, pueda solicitarse directamente a ESRI la recuperación de la Licencia.&lt;/p&gt;" style="text;html=1;strokeColor=none;fillColor=none;spacing=5;spacingTop=-20;whiteSpace=wrap;overflow=hidden;rounded=0;" vertex="1" parent="1">
          <mxGeometry x="1510" y="1025" width="270" height="180" as="geometry" />
        </mxCell>
        <mxCell id="xSABTvXdTQhV1PIQ-neN-26" style="edgeStyle=orthogonalEdgeStyle;rounded=0;orthogonalLoop=1;jettySize=auto;html=1;entryX=0.5;entryY=0;entryDx=0;entryDy=0;" edge="1" parent="1" source="xSABTvXdTQhV1PIQ-neN-23" target="xSABTvXdTQhV1PIQ-neN-25">
          <mxGeometry relative="1" as="geometry" />
        </mxCell>
        <mxCell id="xSABTvXdTQhV1PIQ-neN-23" value="Se estudia las razones por las cuales no puede ser desautorizada la licencia" style="rounded=0;whiteSpace=wrap;html=1;fillColor=#d5e8d4;strokeColor=#82b366;" vertex="1" parent="1">
          <mxGeometry x="1210" y="1415" width="210" height="60" as="geometry" />
        </mxCell>
        <mxCell id="xSABTvXdTQhV1PIQ-neN-29" style="edgeStyle=orthogonalEdgeStyle;rounded=0;orthogonalLoop=1;jettySize=auto;html=1;" edge="1" parent="1" source="xSABTvXdTQhV1PIQ-neN-25" target="xSABTvXdTQhV1PIQ-neN-28">
          <mxGeometry relative="1" as="geometry" />
        </mxCell>
        <mxCell id="xSABTvXdTQhV1PIQ-neN-66" style="edgeStyle=orthogonalEdgeStyle;rounded=0;orthogonalLoop=1;jettySize=auto;html=1;entryX=0.75;entryY=1;entryDx=0;entryDy=0;" edge="1" parent="1" source="xSABTvXdTQhV1PIQ-neN-25" target="xSABTvXdTQhV1PIQ-neN-55">
          <mxGeometry relative="1" as="geometry">
            <Array as="points">
              <mxPoint x="1490" y="1590" />
            </Array>
          </mxGeometry>
        </mxCell>
        <mxCell id="xSABTvXdTQhV1PIQ-neN-25" value="¿Los argumentos son validos?" style="rhombus;whiteSpace=wrap;html=1;fillColor=#d5e8d4;strokeColor=#82b366;" vertex="1" parent="1">
          <mxGeometry x="1255" y="1530" width="120" height="120" as="geometry" />
        </mxCell>
        <mxCell id="xSABTvXdTQhV1PIQ-neN-30" style="edgeStyle=orthogonalEdgeStyle;rounded=0;orthogonalLoop=1;jettySize=auto;html=1;entryX=0.5;entryY=1;entryDx=0;entryDy=0;" edge="1" parent="1" source="xSABTvXdTQhV1PIQ-neN-28" target="xSABTvXdTQhV1PIQ-neN-1">
          <mxGeometry relative="1" as="geometry" />
        </mxCell>
        <mxCell id="xSABTvXdTQhV1PIQ-neN-28" value="Se registra los parámetros de la licencia dentro del documento dossier que será remitido a ESRI para la recuperación del licenciamiento" style="rounded=0;whiteSpace=wrap;html=1;fillColor=#d5e8d4;strokeColor=#82b366;" vertex="1" parent="1">
          <mxGeometry x="900" y="1690" width="240" height="60" as="geometry" />
        </mxCell>
        <mxCell id="xSABTvXdTQhV1PIQ-neN-31" value="SI" style="text;html=1;strokeColor=none;fillColor=none;align=center;verticalAlign=middle;whiteSpace=wrap;rounded=0;" vertex="1" parent="1">
          <mxGeometry x="687.5" y="1130" width="40" height="20" as="geometry" />
        </mxCell>
        <mxCell id="xSABTvXdTQhV1PIQ-neN-32" value="NO" style="text;html=1;strokeColor=none;fillColor=none;align=center;verticalAlign=middle;whiteSpace=wrap;rounded=0;" vertex="1" parent="1">
          <mxGeometry x="860" y="1130" width="40" height="20" as="geometry" />
        </mxCell>
        <mxCell id="xSABTvXdTQhV1PIQ-neN-42" value="NO" style="text;html=1;strokeColor=none;fillColor=none;align=center;verticalAlign=middle;whiteSpace=wrap;rounded=0;" vertex="1" parent="1">
          <mxGeometry x="1081" y="1150" width="40" height="20" as="geometry" />
        </mxCell>
        <mxCell id="xSABTvXdTQhV1PIQ-neN-33" value="" style="endArrow=none;dashed=1;html=1;exitX=1;exitY=0;exitDx=0;exitDy=0;entryX=0;entryY=0.5;entryDx=0;entryDy=0;" edge="1" parent="1" target="xSABTvXdTQhV1PIQ-neN-21">
          <mxGeometry width="50" height="50" relative="1" as="geometry">
            <mxPoint x="1055" y="1115" as="sourcePoint" />
            <mxPoint x="1260" y="1160" as="targetPoint" />
          </mxGeometry>
        </mxCell>
        <mxCell id="xSABTvXdTQhV1PIQ-neN-49" style="edgeStyle=orthogonalEdgeStyle;rounded=0;orthogonalLoop=1;jettySize=auto;html=1;entryX=0.5;entryY=0;entryDx=0;entryDy=0;" edge="1" parent="1" source="xSABTvXdTQhV1PIQ-neN-34" target="xSABTvXdTQhV1PIQ-neN-48">
          <mxGeometry relative="1" as="geometry" />
        </mxCell>
        <mxCell id="xSABTvXdTQhV1PIQ-neN-56" style="edgeStyle=orthogonalEdgeStyle;rounded=0;orthogonalLoop=1;jettySize=auto;html=1;entryX=0;entryY=0.5;entryDx=0;entryDy=0;" edge="1" parent="1" source="xSABTvXdTQhV1PIQ-neN-34" target="xSABTvXdTQhV1PIQ-neN-55">
          <mxGeometry relative="1" as="geometry" />
        </mxCell>
        <mxCell id="xSABTvXdTQhV1PIQ-neN-34" value="¿El &lt;br&gt;funcionario\contratista&lt;br&gt;reporta el no acceso a la máquina o&amp;nbsp;necesita acompañamiento&lt;br&gt;presencial?" style="rhombus;whiteSpace=wrap;html=1;fillColor=#d5e8d4;strokeColor=#82b366;" vertex="1" parent="1">
          <mxGeometry x="950" y="1080" width="140" height="140" as="geometry" />
        </mxCell>
        <mxCell id="xSABTvXdTQhV1PIQ-neN-38" value="SI" style="text;html=1;strokeColor=none;fillColor=none;align=center;verticalAlign=middle;whiteSpace=wrap;rounded=0;" vertex="1" parent="1">
          <mxGeometry x="1220" y="1590" width="40" height="20" as="geometry" />
        </mxCell>
        <mxCell id="xSABTvXdTQhV1PIQ-neN-41" value="NO" style="text;html=1;strokeColor=none;fillColor=none;align=center;verticalAlign=middle;whiteSpace=wrap;rounded=0;" vertex="1" parent="1">
          <mxGeometry x="1375" y="1570" width="40" height="20" as="geometry" />
        </mxCell>
        <mxCell id="xSABTvXdTQhV1PIQ-neN-51" style="edgeStyle=orthogonalEdgeStyle;rounded=0;orthogonalLoop=1;jettySize=auto;html=1;entryX=0.5;entryY=0;entryDx=0;entryDy=0;" edge="1" parent="1" source="xSABTvXdTQhV1PIQ-neN-48" target="xSABTvXdTQhV1PIQ-neN-50">
          <mxGeometry relative="1" as="geometry" />
        </mxCell>
        <mxCell id="xSABTvXdTQhV1PIQ-neN-48" value="Se realiza el acompañamiento y soporte solicitado" style="rounded=0;whiteSpace=wrap;html=1;fillColor=#d5e8d4;strokeColor=#82b366;" vertex="1" parent="1">
          <mxGeometry x="920" y="1270" width="200" height="60" as="geometry" />
        </mxCell>
        <mxCell id="xSABTvXdTQhV1PIQ-neN-52" style="edgeStyle=orthogonalEdgeStyle;rounded=0;orthogonalLoop=1;jettySize=auto;html=1;entryX=0.5;entryY=1;entryDx=0;entryDy=0;" edge="1" parent="1" source="xSABTvXdTQhV1PIQ-neN-50" target="xSABTvXdTQhV1PIQ-neN-1">
          <mxGeometry relative="1" as="geometry" />
        </mxCell>
        <mxCell id="xSABTvXdTQhV1PIQ-neN-53" style="edgeStyle=orthogonalEdgeStyle;rounded=0;orthogonalLoop=1;jettySize=auto;html=1;entryX=0;entryY=0.5;entryDx=0;entryDy=0;" edge="1" parent="1" source="xSABTvXdTQhV1PIQ-neN-50" target="xSABTvXdTQhV1PIQ-neN-23">
          <mxGeometry relative="1" as="geometry" />
        </mxCell>
        <mxCell id="xSABTvXdTQhV1PIQ-neN-50" value="¿Se logra la&lt;br&gt;desautorización?" style="rhombus;whiteSpace=wrap;html=1;fillColor=#d5e8d4;strokeColor=#82b366;" vertex="1" parent="1">
          <mxGeometry x="952.25" y="1380" width="135.5" height="130" as="geometry" />
        </mxCell>
        <mxCell id="xSABTvXdTQhV1PIQ-neN-54" value="SI" style="text;html=1;strokeColor=none;fillColor=none;align=center;verticalAlign=middle;whiteSpace=wrap;rounded=0;" vertex="1" parent="1">
          <mxGeometry x="1011" y="1216" width="40" height="20" as="geometry" />
        </mxCell>
        <mxCell id="xSABTvXdTQhV1PIQ-neN-58" style="edgeStyle=orthogonalEdgeStyle;rounded=0;orthogonalLoop=1;jettySize=auto;html=1;entryX=0;entryY=0.5;entryDx=0;entryDy=0;" edge="1" parent="1" source="xSABTvXdTQhV1PIQ-neN-55" target="xSABTvXdTQhV1PIQ-neN-57">
          <mxGeometry relative="1" as="geometry" />
        </mxCell>
        <mxCell id="xSABTvXdTQhV1PIQ-neN-55" value="Se envía un correo electrónico al contratista\funcionario informándole&lt;br&gt;las razones por las cuales no puede generarse el VoBo" style="rounded=0;whiteSpace=wrap;html=1;fillColor=#d5e8d4;strokeColor=#82b366;" vertex="1" parent="1">
          <mxGeometry x="1340" y="1250" width="200" height="60" as="geometry" />
        </mxCell>
        <mxCell id="xSABTvXdTQhV1PIQ-neN-57" value="FIN" style="ellipse;whiteSpace=wrap;html=1;aspect=fixed;" vertex="1" parent="1">
          <mxGeometry x="1690" y="1240" width="80" height="80" as="geometry" />
        </mxCell>
        <mxCell id="xSABTvXdTQhV1PIQ-neN-60" value="SI" style="text;html=1;strokeColor=none;fillColor=none;align=center;verticalAlign=middle;whiteSpace=wrap;rounded=0;" vertex="1" parent="1">
          <mxGeometry x="925" y="1426" width="40" height="20" as="geometry" />
        </mxCell>
        <mxCell id="xSABTvXdTQhV1PIQ-neN-65" value="NO" style="text;html=1;strokeColor=none;fillColor=none;align=center;verticalAlign=middle;whiteSpace=wrap;rounded=0;" vertex="1" parent="1">
          <mxGeometry x="1081" y="1446" width="40" height="20" as="geometry" />
        </mxCell>
      </root>
    </mxGraphModel>
  </diagram>
</mxfile>
